<?xml version="1.0" encoding="utf-8"?><!-- Uploaded to: SVG Repo, www.svgrepo.com, Generator: SVG Repo Mixer Tools -->
<svg fill="#000000" width="800px" height="800px" viewBox="0 0 24 24" id="signal" data-name="Flat Color" xmlns="http://www.w3.org/2000/svg" class="icon flat-color"><path id="primary" d="M12,22a1,1,0,0,1-1-1V9a1,1,0,0,1,2,0V21A1,1,0,0,1,12,22Z" style="fill: rgb(0, 0, 0);"></path><path id="secondary" d="M15.54,13.9a1,1,0,0,1-.71-1.71,4,4,0,0,0,0-5.65,1,1,0,0,1,0-1.42,1,1,0,0,1,1.41,0,6,6,0,0,1,0,8.49A1,1,0,0,1,15.54,13.9Zm-6.37-.29a1,1,0,0,0,0-1.42,4,4,0,0,1,0-5.65,1,1,0,0,0,0-1.42,1,1,0,0,0-1.41,0,6,6,0,0,0,0,8.49,1,1,0,0,0,1.41,0Zm9.9,2.83a10,10,0,0,0,0-14.15,1,1,0,0,0-1.41,0,1,1,0,0,0,0,1.42,8,8,0,0,1,0,11.31,1,1,0,0,0,1.41,1.42Zm-12.73,0a1,1,0,0,0,0-1.42,8,8,0,0,1,0-11.31,1,1,0,0,0,0-1.42,1,1,0,0,0-1.41,0,10,10,0,0,0,0,14.15,1,1,0,0,0,1.41,0ZM12,8a1.5,1.5,0,1,0,1.5,1.5A1.5,1.5,0,0,0,12,8Z" style="fill: rgb(44, 169, 188);"></path></svg>